<?xml version="1.0" encoding="utf-8"?>
<!-- Generator: Adobe Illustrator 28.0.0, SVG Export Plug-In . SVG Version: 6.00 Build 0)  -->
<svg version="1.1" id="Capa_1" xmlns="http://www.w3.org/2000/svg" xmlns:xlink="http://www.w3.org/1999/xlink" x="0px" y="0px"
	 viewBox="0 0 564.5 205.7" style="enable-background:new 0 0 564.5 205.7;" xml:space="preserve">
<style type="text/css">
	.st0{fill:#EB1D1D;}
</style>
<path class="st0" d="M192.6,68.5c1-14.3,1.8-28.7,2.9-43c0.3-3.4,1-6.8,1.8-10.2c0.2-1,1.5-1.7,2.3-2.5c0.5,1,1.4,2,1.4,2.9
	c0,8.1-0.2,16.3-0.3,24.4c0,1.8,0,3.6,0.6,5.4c0.7-7.9,1.4-15.8,2.1-23.6c0.3-3.1,0.7-6.3,1.2-9.4c0.1-0.8,1.1-1.4,1.7-2.1
	c0.6,0.8,1.4,1.5,1.8,2.4c0.3,0.7,0.1,1.6,0.1,2.4c-0.1,30-0.2,59.9-0.3,89.9c0,1.1,0,2.2,0.3,3.3c0.9-19.9,1.5-39.9,2.6-59.8
	c0.6-10.8,2-21.5,2.9-32.2c0.2-2.1,1.2-3.5,3.2-3c9.8,2.1,19.8,3.7,29.4,6.7c22.6,7.1,41.8,19.5,56.2,38.7
	c6.8,9.1,11.5,19.2,13.9,30.3c0.4,1.8,1,2.7,3,3c3.7,0.6,5.7,3.6,6.7,6.8c1.3,4.3,2.1,8.7,3.2,13c0.6,2.3,1.4,4.5,2.2,6.8
	c0.4,0,0.8,0,1.1,0c0.7-2.5,1.4-5,2.2-7.5c1.2-3.6,2.3-7.2,3.7-10.6c0.6-1.4,1.7-2.8,2.9-3.9c2.9-2.7,6-2.1,7.5,1.6
	c1.4,3.4,2.3,7,3.6,10.3c0.9,2.2,2.1,4.1,3.6,6.9c1.3-2.3,2.2-3.7,3-5c1.3-2.2,2.5-4.5,4.1-6.4c3.4-4.1,7.6-3.7,10.6,0.8
	c0.4,0.6,0.7,1.2,1.1,1.8c3.2,5.4,3,4.9,9.3,3.4c7-1.7,14.2-2.4,21.3-3.4c0.6-0.1,1.3,0.8,2,1.2c-0.6,0.5-1.2,1.4-1.9,1.5
	c-3.4,0.6-6.9,0.8-10.3,1.5c-4.5,0.9-8.9,1.9-13.3,3.2c-4.6,1.4-6.1,1-8.5-3.2c-0.8-1.4-1.5-2.9-2.4-4.3c-1.8-2.8-3.2-3-5.5-0.5
	c-0.7,0.7-1.3,1.6-1.8,2.5c-1,1.7-1.7,3.5-2.9,5c-1.3,1.6-3,3.7-4.8,4.1c-2.7,0.5-4.3-2-5.2-4.4c-1.6-3.9-2.8-7.8-4.3-11.7
	c-0.4-1.1-1.2-2-1.9-3c-1,0.8-2.5,1.3-3,2.4c-1.6,3.5-2.8,7.1-4.1,10.8c-0.7,2.1-0.9,4.5-1.9,6.4c-0.8,1.5-2.5,3.5-3.8,3.6
	c-1.4,0.1-3.5-1.8-4.1-3.2c-1.4-3.6-2.1-7.4-3.1-11.1c-0.8-2.9-1.4-6-2.6-8.7c-0.7-1.6-2.5-2.7-3.8-4c-0.2,0.2-0.4,0.4-0.6,0.6
	c0,6.1,0.4,12.2-0.1,18.2c-1.2,17-7.9,31.9-18.1,45.3c-16.8,22-39.1,36.2-65,45.1c-4.7,1.6-9.5,2.9-14.6,4.5
	c-0.3-2.4-0.6-4.3-0.7-6.1c-0.3-20.4-0.6-40.7-0.7-61.1c0-4.9,0.4-5.2,5-5.7c10.8-1.2,16.3-6.1,18.5-16.8c1.9-9.5,2.2-18.9-3.4-27.4
	c-4.2-6.4-10.2-9.9-17.9-10.1c-3-0.1-3.6-1.3-3.6-3.9c-0.5-14.4-1-28.7-1.6-43.1c0-1.1-0.2-2.2-0.6-3.3c-0.4,5.1-0.9,10.2-1.1,15.3
	c-1.1,36-2.4,72.1-3.1,108.1c-0.3,14.7,0.7,29.5,1,44.3c0,1.8,0.1,3.7-0.1,5.5c-0.1,0.8-0.9,1.6-1.4,2.4c-0.8-0.6-2-1.2-2.2-2
	c-0.6-3.4-1.1-6.8-1.2-10.3c-0.9-34.1-1.7-68.2-2.4-102.3c-0.2-12.9,0-25.9,0.1-38.8c0-1.1,0-2.2-0.6-3.3c-0.4,6.5-1,12.9-1.3,19.4
	c-1.5,27.8-0.7,55.6,0.8,83.4c0.8,13.6,1.1,27.3,1.6,40.9c0,0.6,0.2,1.3,0,1.8c-0.4,0.9-1,1.7-1.5,2.6c-0.7-0.8-1.9-1.4-2-2.3
	c-0.6-3.8-1.1-7.7-1.4-11.5c-3.7-37.9-2.4-75.9-2.8-113.9c-0.1-6.5,0-13-0.7-19.5c-0.3,7.6-0.7,15.3-0.8,22.9
	c-0.2,30.8-0.2,61.5-0.3,92.3c0,10.6,0.1,21.2,0.2,31.8c0,0.5,0.2,1.1,0,1.5c-0.4,0.8-1,1.5-1.6,2.2c-0.5-0.7-1.4-1.3-1.5-2
	c-0.3-2.3-0.4-4.7-0.5-7c-0.8-22.8-1.6-45.6-2.5-68.4c-0.6,10.7-1.4,21.3-1.8,32c-0.5,12.8-0.6,25.7-0.8,38.5c0,0.6,0.1,1.3-0.1,1.8
	c-0.3,0.7-0.9,1.2-1.3,1.8c-0.6-0.6-1.7-1-1.8-1.7c-0.4-2.8-0.7-5.7-0.9-8.5c-2.4-29.4-3.5-58.8-3.2-88.2c0-1.6,0-3.2-0.4-4.9
	c-0.3,15.5-0.5,31-0.9,46.4c-0.5,16.4-1.1,32.8-1.8,49.2c-0.1,1.6-1.1,4.4-1.8,4.5c-2.8,0.2-2.7-2.6-2.9-4.4
	c-1.5-12.6-3.4-25.2-4.2-37.9c-2-31.4-3.5-62.8-5.2-92.8c-0.3,7.1-0.8,15.7-1,24.3c-0.7,26.6-1.3,53.2-2,79.7
	c-0.1,5.5-0.6,11-1.2,16.4c-0.2,1.4-1.5,2.7-2.3,4.1c-0.9-1.3-2.4-2.6-2.6-4c-1.6-11.3-3.7-22.6-4.1-33.9c-0.9-28.4-1-56.8-1.4-85.2
	c0-1.4,0-2.8-0.5-4.3c-1,11-2.4,22-3.1,33c-1.5,23.2-2.6,46.4-3.8,69.5c-0.1,1.3-0.2,2.7-0.5,3.9c-0.2,0.7-1,1.3-1.5,2
	c-0.7-0.6-1.9-1.1-2-1.8c-0.8-4.3-1.5-8.6-1.9-13c-2.1-22.4-4.2-44.8-6.2-67.2c-0.1-0.6-0.2-1.1-1-1.8c-1.3,5.6-2.9,11.2-3.7,16.9
	c-2,14-3.7,28-5.6,42c-0.2,1.2-0.2,2.5-0.7,3.6c-0.5,1-1.4,2.3-2.2,2.5c-0.8,0.1-2.1-1-2.6-2c-0.9-1.7-1.5-3.6-1.8-5.5
	c-2.1-12.8-4.1-25.7-6.1-38.6c-0.5-3.2-1-6.4-1.4-9.5c-0.3,0-0.6-0.1-0.9-0.1c-0.8,4.4-1.8,8.7-2.5,13.1c-1.1,7.1-2,14.3-3.2,21.4
	c-0.3,2-0.5,5-3.1,4.9c-1.3-0.1-3.1-2.4-3.8-4.1c-2.6-6.4-4.7-13-7.1-19.5c-0.8-2.1-1.9-4.1-3.1-5.9c-1.6-2.3-3-2.2-4.4,0.2
	c-1.6,2.7-2.7,5.7-4,8.5c-1.4,3.2-2.6,6.4-4.2,9.5c-1.7,3.2-4.5,3.2-6.3,0.1c-1.9-3.3-3.2-6.8-4.9-10.1c-2.2-4.3-3.8-4.5-6.8-0.7
	c-1.4,1.7-2.7,3.6-4.1,5.3c-3.1,3.5-6,3.5-9,0c-1.6-1.8-3.1-3.8-4.4-5.8c-1.6-2.3-3.4-2.4-5.8-1.3c-2.7,1.4-5.5,2.7-8.3,3.8
	c-4.4,1.6-8.8,1-13.1-0.7c-0.8-0.3-1.4-1.5-2-2.2c1-0.2,2.2-0.8,3.1-0.5c5.2,1.7,10.2,1.2,15.1-1.2c9.9-4.9,9.9-4.9,16.4,4.1
	c0.3,0.4,0.6,0.8,0.9,1.2c2,2.4,3.1,2.5,5.1,0.1c1.5-1.8,2.8-3.8,4.3-5.5c4.3-4.7,7.9-4.3,11,1.3c1.4,2.6,2.5,5.3,3.8,8
	c0.5,1,1,2,1.9,3.7c1.4-3.2,2.5-5.8,3.6-8.3c1.5-3.4,2.6-6.9,4.4-10c3.3-5.8,8-5.9,11.1-0.1c2.9,5.4,4.8,11.4,7.1,17.1
	c1,2.6,1.8,5.3,2.8,8c0.3,0,0.5,0,0.8,0c0.6-4.6,1.2-9.3,2-13.9c1-6.2,2-12.4,3.2-18.6c0.3-1.5,0.7-3.1,1.5-4.3
	c0.8-1.2,2.2-2.1,3.3-3.2c0.8,1.2,2.2,2.2,2.4,3.5c1.4,7.9,2.4,15.9,3.7,23.8c1.3,8.3,2.8,16.6,4.2,25c0.1,0.9,0.5,1.7,1.1,2.5
	c0.9-8,1.3-16.2,2.6-24.1c2.2-12.7,4.9-25.4,7.6-38c0.4-1.7,2.1-3.1,3.2-4.7c0.9,1.7,2.3,3.3,2.5,5c1.4,12.3,2.6,24.7,3.8,37.1
	c0.9,9.6,1.8,19.2,3.2,28.8c0.1-0.9,0.3-1.9,0.3-2.8c2.1-28.5,4.2-57.1,6.4-85.6c0.3-4.3,1-8.5,1.8-12.7c0.3-1.5,1.5-3.9,2.4-4
	c2.6-0.1,2.2,2.6,2.2,4.2c0.2,10,0.2,20,0.3,29.9c0.2,20.3,0,40.5,0.6,60.8c0.4,13.4,2.1,26.7,3.2,40.1c0.3,0,0.7,0,1,0
	c0.3-9.8,0.7-19.6,1-29.5c0.5-21.2,0.8-42.4,1.5-63.5c0.5-14.9,1.5-29.7,2.3-44.5c0-0.7,0-1.5,0.4-2.1c0.4-0.6,1-1.5,1.6-1.5
	c0.6,0,1.5,0.7,1.7,1.4c0.4,1.1,0.6,2.4,0.6,3.6c1,24.1,1.8,48.3,3.1,72.4c1.3,22.3,3.2,44.5,4.9,66.7c0.1,1.1,0.4,2.1,1.1,3.1
	c0.4-14.8,0.7-29.5,1.2-44.3c0.6-23.2,1.1-46.4,2.1-69.6c0.5-13.2,1.9-26.4,2.9-39.6c0.1-0.7,0-1.5,0.4-2.1c0.5-0.7,1.3-1.2,2-1.8
	c0.5,0.7,1.3,1.4,1.3,2.1c0.2,5,0.3,10,0.2,15c-0.4,29.3-1,58.7-1.2,88c-0.1,10.1,0.7,20.1,1.5,30.2c0.5-8.9,1.1-17.8,1.3-26.8
	c0.9-34.1,1.7-68.2,2.6-102.3c0-1.6,0-3.3,0.3-4.9c0.2-0.8,1.1-1.5,1.7-2.2c0.5,0.8,1.5,1.7,1.5,2.5c0.2,2.7,0.1,5.5,0.1,8.2
	c0,12.1,0,24.2,0,36.4C192.4,68.6,192.5,68.5,192.6,68.5z M296.4,148.9c19.1-31.6,10.7-71.2-13.7-96.2c0.6,1.5,1,2.4,1.4,3.3
	c3.1,8.1,6.4,16.3,9.4,24.5c0.7,2.1,0.9,4.4,0.9,6.6c0,0.9-0.9,2.5-1.5,2.6c-0.9,0.1-2.3-0.7-2.8-1.5c-1.1-1.6-1.8-3.4-2.6-5.2
	c-1.2-2.5-2.3-5-3.5-7.5c0,2.1,0.6,4.1,0.7,6.1c0.1,1-0.7,2.1-1.2,3.1c-0.9-0.6-2.1-1-2.7-1.8c-1-1.3-1.6-2.8-2.4-4.2
	c-1.7-2.8-3.5-5.6-5.2-8.4c2,6.9,4.3,13.5,6.4,20.1c0.6,2,0.9,4.2,1.1,6.3c0.1,0.8-0.6,1.6-0.9,2.4c-0.8-0.5-1.8-0.8-2.3-1.5
	c-0.9-1.3-1.4-3-2.3-4.3c-3.1-4.7-6.3-9.4-9.5-14.1c-0.3,0.2-0.5,0.4-0.8,0.5c0.7,2.5,1.5,5.1,2,7.6c0.4,2.3,0.6,4.7,0.5,7
	c0,0.9-1.2,1.8-1.8,2.8c-0.8-0.6-1.8-1.1-2.4-1.9c-0.7-0.9-1-2-1.5-3c-1.4-2.8-2.8-5.5-4.3-8.3c0,3.8,0.6,7.4,0.9,10.9
	c0.2,2.3,0.2,4.9-2.2,5c-1,8.4-2,16.5-3,24.6c3,0.1,3.7,0.8,3.1,4.6c-0.3,1.9-0.7,3.8-1.3,5.6c-1.6,4.8-3.2,9.6-4.9,14.3
	c3.4-3.5,6.3-7.4,9.3-11.2c2.8-3.4,5.6-6.7,8.5-10c0.6-0.7,1.9-0.6,2.9-0.9c0.3,1,1,2.1,0.7,2.9c-1,3.3-2.2,6.5-3.6,9.7
	c-1.2,2.7-2.6,5.3-3.9,8c1.6-0.9,2.7-2.1,3.8-3.2c3.5-3.7,6.9-7.5,10.6-10.9c0.9-0.9,2.7-0.8,4.1-1.2c0.1,1.3,0.7,2.7,0.4,4
	c-0.5,2-1.5,3.9-2.1,5.4c1.5-0.3,2.9-0.6,4.4-0.9c-0.1,1.5,0,3.1-0.4,4.6c-0.4,1.3-1.2,2.6-1.9,3.8c-1.4,2.5-2.9,5-4.3,7.5
	c2.6-2.2,4.7-4.8,6.8-7.2c1.5-1.7,3-1.9,4.1,0.8c1.8-2.7,3.4-5.2,5.2-7.5c0.6-0.7,1.8-0.9,2.7-1.4c0.3,1.1,0.9,2.2,0.7,3.2
	C297.8,146,296.9,147.4,296.4,148.9z"/>
<path class="st0" d="M538.9,135.1c1.2-10.2,2.5-20.3,3.6-30.4c0.7-6.6,0.6-6.6-5.2-9.7c-7.1-3.8-14.2-7.5-21.7-11.6
	c-0.4,2.8-0.8,5.2-1.1,7.7c-1.5,12.5-2.9,25.1-4.4,37.6c-1,8.1-10.1,14.4-18,12.6c-5.9-1.4-8.6-7.9-5.5-13.6c3.2-6,8.6-8.4,15.6-8.3
	c2.3-19.2,4.6-38.3,6.9-57.8c1.1,0.5,2,0.8,2.8,1.3c13.1,6.7,26.3,13.4,39.4,20c1.8,0.9,2.5,1.8,2.3,4c-1.8,14.9-3.5,29.9-5.3,44.9
	c-0.5,4.3-1,8.7-1.5,13c-0.9,8-9.9,14.5-17.5,12.6c-6-1.5-8.8-6.7-6.4-12.4c2-4.9,5.8-7.7,10.9-8.9
	C535.3,135.5,536.9,135.4,538.9,135.1z"/>
<path class="st0" d="M436.2,102.1c3.2,14,6.3,27.7,9.3,41.3c0.4,1.8,0.8,3.6,1.2,5.4c2.4,10.6-4.2,21.3-14.7,23.9
	c-8.8,2.1-16.1-4.5-14.6-13.4c1.6-9.5,7.4-15.3,16.9-17.9c-1.5-6.8-3-13.6-4.6-20.4c-2.5-11-5-22-7.5-33c-0.3-1.4-0.4-2.9-0.2-4.2
	c0.4-2.7,2.2-4.7,4.8-4.7c1.8,0,4.8,1.1,5.3,2.4c2.5,6.9,8.5,9.3,14.2,12.5c11.4,6.5,16.3,18.2,13.4,30.9c-0.2,0.9-0.3,2-0.9,2.5
	c-1,0.8-2.4,1.8-3.5,1.6c-0.9-0.1-1.8-1.5-2.5-2.5c-0.3-0.4-0.1-1.2,0-1.8C454.2,112.5,448.7,104.8,436.2,102.1z"/>
<path class="st0" d="M465.6,46.4c0.9-8.4,1.7-16.5,2.6-24.6c0.1-0.6,0.1-1.2,0.2-1.8c0.4-2.1,0.2-4.9,3.3-5c3.1-0.2,2.6,2.6,3.4,4.5
	c0.7,1.8,2,3.5,3.4,4.9c5,5.3,6.1,12,2.4,17.8c-0.6,0.9-1.9,1.3-2.9,1.9c-0.1-1.1-0.5-2.3-0.1-3.2c2-5.5,0.7-9.3-4.8-13
	c-0.6,5.4-1.2,10.6-1.7,15.8c-0.3,3.1-0.6,6.3-1.1,9.4c-0.8,5.1-5.6,8.7-10.8,8.4c-4.3-0.3-6.9-4.3-5.3-8.3c1.5-3.7,4.3-5.8,8.2-6.4
	C463.3,46.6,464.3,46.5,465.6,46.4z"/>
<path class="st0" d="M222,114.4c-2.3,0-4-1.9-4-4.5c0-2.6,1.9-4.6,4.3-4.6c2.4-0.1,4.1,1.7,4.1,4.3
	C226.5,112.3,224.5,114.4,222,114.4z"/>
</svg>
